<?xml version="1.0" standalone="no"?>
<!DOCTYPE svg PUBLIC "-//W3C//DTD SVG 20010904//EN"
 "http://www.w3.org/TR/2001/REC-SVG-20010904/DTD/svg10.dtd">
<svg version="1.0" xmlns="http://www.w3.org/2000/svg"
 width="128.000000pt" height="128.000000pt" viewBox="0 0 128.000000 128.000000"
 preserveAspectRatio="xMidYMid meet">
<metadata>
Created by potrace 1.11, written by Peter Selinger 2001-2013
</metadata>
<g transform="translate(0.000000,128.000000) scale(0.100000,-0.100000)"
fill="#000000" stroke="none">
<path d="M510 1118 c-228 -59 -374 -223 -395 -444 -10 -98 18 -244 46 -244 6
0 7 5 4 11 -19 29 -23 194 -6 254 6 22 10 43 10 48 0 19 75 146 109 182 43 47
112 101 112 89 0 -5 4 -4 8 2 9 13 99 55 126 58 12 2 32 6 46 10 47 12 150 13
150 2 0 -7 -25 -11 -63 -11 -34 0 -68 -4 -74 -9 -7 -5 -13 -6 -13 -2 0 11
-129 -41 -186 -75 -66 -40 -144 -137 -169 -209 -1 -3 -4 -12 -7 -20 -25 -63
-31 -98 -34 -191 -3 -85 0 -115 15 -157 45 -122 119 -204 221 -243 44 -17 77
-22 165 -22 68 0 119 4 133 12 13 7 22 8 22 2 0 -6 12 -4 28 4 28 15 103 47
113 49 3 1 13 9 23 19 10 9 21 17 26 17 22 0 138 133 173 197 132 249 86 495
-117 617 -84 50 -153 68 -281 71 -84 2 -128 -2 -185 -17z m393 -69 c130 -66
200 -180 200 -329 0 -70 -28 -203 -47 -223 -6 -7 -20 -29 -30 -50 -20 -38
-123 -142 -174 -174 -15 -10 -29 -20 -32 -24 -3 -3 -36 -18 -74 -33 -211 -84
-400 -35 -482 127 -13 26 -21 47 -18 47 4 0 1 6 -5 14 -22 26 -26 205 -6 284
17 73 80 187 96 176 11 -6 12 -31 2 -36 -9 -4 -43 -62 -43 -74 0 -4 15 7 33
24 l34 33 36 -108 c20 -59 50 -166 67 -238 31 -132 49 -175 75 -175 7 0 16 -4
19 -8 11 -18 -77 -12 -110 8 -47 27 -60 25 -30 -5 55 -55 200 -50 293 10 13 9
23 13 23 10 0 -4 6 0 14 7 7 7 30 26 51 43 21 16 56 52 78 80 22 27 55 61 75
74 l35 24 -7 -29 c-7 -28 -7 -28 12 -11 30 27 63 111 70 181 14 116 -16 222
-79 286 -67 68 -100 86 -184 102 -36 7 -65 18 -65 24 0 16 117 -9 173 -37z
m-67 -49 c42 -21 137 -100 120 -100 -4 0 0 -7 8 -16 25 -24 47 -118 47 -196 0
-65 -8 -87 -31 -88 -3 0 -5 46 -5 103 0 87 -3 108 -23 145 -32 59 -80 106
-140 135 -43 21 -63 24 -139 23 -90 -2 -114 -6 -123 -18 -3 -4 -26 -10 -50
-14 -63 -9 -42 9 40 35 89 28 228 23 296 -9z m-68 -51 c13 -5 34 -16 45 -25
21 -15 15 -16 -78 -10 -55 3 -120 12 -145 19 l-45 14 45 10 c47 11 138 7 178
-8z m136 -224 c1 -33 -3 -77 -7 -97 -7 -35 -13 -39 -114 -88 -58 -27 -107 -49
-108 -48 -36 47 -96 206 -108 286 l-5 32 51 -7 c71 -10 248 -6 261 7 17 17 29
-18 30 -85z"/>
<path d="M254 558 c-17 -54 -10 -142 14 -193 26 -54 103 -132 139 -141 13 -4
21 -9 19 -13 -2 -3 6 -6 17 -7 12 -1 47 -3 79 -6 34 -3 67 0 85 8 l28 12 -35
2 c-19 1 -51 1 -71 0 -101 -4 -209 104 -235 236 -5 22 -9 42 -10 47 -1 4 -2
23 -3 42 -1 39 -16 46 -27 13z"/>
</g>
</svg>
